# xmcd CD database file
# Copyright (C) 1993-1998 Ti Kan
#
# Track frame offsets:
#  150
#  24000
#  40300
#  53587
#  73132
#  98840
#  117237
#  130665
#  154135
#  171490
#
# Disc length: 2503 seconds
#
# Revision: 1
# Processed by: cddbd v1.4b41PL1 Copyright (c) Steve Scherf et al.
# Submitted via: CDWizzard Release:4.35
#
DISCID=7e09c50a
DTITLE=David Clayton-Thomas - Blue Plate Special
DYEAR=1900
DGENRE=
TTITLE0=Too Many Dirty Dishes
TTITLE1=Suzy Got Her Big Hair On
TTITLE2=Hard Times
TTITLE3=Lucretia MacEvil
TTITLE4=Drown In My Own Tears
TTITLE5=Hoochie Coochie Man
TTITLE6=Woman Across the River
TTITLE7=The Danger Zone
TTITLE8=We Were The Children
TTITLE9=Wish The World Would Come To Memphis
EXTD=
EXTT0=
EXTT1=
EXTT2=
EXTT3=
EXTT4=
EXTT5=
EXTT6=
EXTT7=
EXTT8=
EXTT9=
PLAYORDER=
